<svg width="32" height="33" viewBox="0 0 32 33" fill="none" xmlns="http://www.w3.org/2000/svg">
<path d="M9.33073 0.886719C4.1854 0.886719 0 5.07964 0 10.2308V23.5757C0 28.7255 4.18927 32.9146 9.33594 32.9146H22.6693C27.8146 32.9146 32 28.7217 32 23.5705V10.2256C32 5.07576 27.8107 0.886719 22.6641 0.886719H9.33073ZM25.3333 6.2247C26.0693 6.2247 26.6667 6.82255 26.6667 7.55919C26.6667 8.29583 26.0693 8.89369 25.3333 8.89369C24.5973 8.89369 24 8.29583 24 7.55919C24 6.82255 24.5973 6.2247 25.3333 6.2247ZM16 8.89369C20.412 8.89369 24 12.4848 24 16.9007C24 21.3165 20.412 24.9076 16 24.9076C11.588 24.9076 8 21.3165 8 16.9007C8 12.4848 11.588 8.89369 16 8.89369ZM16 11.5627C14.5855 11.5627 13.229 12.1251 12.2288 13.1261C11.2286 14.1272 10.6667 15.4849 10.6667 16.9007C10.6667 18.3164 11.2286 19.6741 12.2288 20.6752C13.229 21.6762 14.5855 22.2386 16 22.2386C17.4145 22.2386 18.771 21.6762 19.7712 20.6752C20.7714 19.6741 21.3333 18.3164 21.3333 16.9007C21.3333 15.4849 20.7714 14.1272 19.7712 13.1261C18.771 12.1251 17.4145 11.5627 16 11.5627Z" fill="white"/>
</svg>
