<svg width="35" height="29" viewBox="0 0 35 29" fill="none" xmlns="http://www.w3.org/2000/svg">
<path d="M35 4.20562C33.7118 4.76932 32.328 5.14865 30.8755 5.31975C32.3589 4.44436 33.4964 3.05833 34.0322 1.4057C32.6457 2.2161 31.1084 2.805 29.4716 3.12332C28.1618 1.7479 26.2961 0.888428 24.2312 0.888428C20.2656 0.888428 17.0511 4.05707 17.0511 7.96316C17.0511 8.51758 17.1157 9.05872 17.2368 9.57467C11.2696 9.28022 5.97939 6.46306 2.43644 2.18162C1.81993 3.22678 1.46591 4.44171 1.46591 5.7402C1.46591 8.19395 2.73259 10.3599 4.65886 11.6279C3.48237 11.5907 2.37452 11.2724 1.40668 10.7432C1.40668 10.7737 1.40668 10.8015 1.40668 10.832C1.40668 14.2607 3.88081 17.1203 7.16665 17.7688C6.56494 17.9307 5.92958 18.0169 5.27403 18.0169C4.81231 18.0169 4.36137 17.9718 3.92389 17.8909C4.83789 20.7014 7.48971 22.7479 10.6315 22.805C8.17488 24.703 5.07884 25.8344 1.71359 25.8344C1.13476 25.8344 0.562671 25.8012 0 25.7349C3.17815 27.7416 6.95127 28.9128 11.0071 28.9128C24.215 28.9128 31.4355 18.1323 31.4355 8.78284C31.4355 8.47646 31.4288 8.1714 31.4153 7.86766C32.8193 6.86893 34.0375 5.62349 35 4.20562Z" fill="white"/>
</svg>
