<?xml version="1.0" encoding="UTF-8"?>
<svg id="Layer_1" data-name="Layer 1" xmlns="http://www.w3.org/2000/svg" viewBox="0 0 388.18 174.99">
  <defs>
    <style>
      .cls-1 {
        fill: #fff;
      }
    </style>
  </defs>
  <path class="cls-1" d="m274.63,74.21l-13.3,12.69c-1.76,0-3.81-.01-5.69-.01,0,0-5.97-4.05-12.31-9.92l7.84,2.18-8.91-16.96,16.88,17.53,13.7-19.22-8.56,18.89,10.34-5.19Z"/>
  <path class="cls-1" d="m186.46,64.12h-2.38l-22.69,48.23h7.92l5.26-11.59h20.52l5.04,11.59h7.92l-21.59-48.23Zm-8.87,29.73l7.42-16.27,7.13,16.27h-14.55Z"/>
  <path class="cls-1" d="m151.3,71.04v41.12h-7.34v-41.12h-11.02v-6.91h29.38v6.91h-11.02Z"/>
  <path class="cls-1" d="m221.49,64.12v41.12h14.11v6.91h-21.46v-48.03h7.34Z"/>
  <path class="cls-1" d="m306.69,73.68c-.43-1.08-1.08-2.09-2.16-3.02-1.51-1.22-3.1-1.73-5.18-1.73-4.46,0-6.77,2.66-6.77,5.76,0,1.44.5,3.96,5.18,5.83l4.82,1.94c8.86,3.6,11.31,8.64,11.31,14.11,0,9.14-6.48,15.41-15.48,15.41-5.54,0-8.86-2.09-11.3-4.82-2.59-2.88-3.75-6.05-4.03-9.36l7.27-1.58c0,2.38.86,4.61,2.02,6.12,1.37,1.73,3.38,2.88,6.26,2.88,4.46,0,7.92-3.24,7.92-8.06s-3.74-6.91-6.91-8.21l-4.61-1.94c-3.96-1.66-9.79-4.97-9.79-12.17,0-6.48,5.04-12.67,14.04-12.67,5.18,0,8.14,1.94,9.65,3.24,1.3,1.15,2.66,2.81,3.67,4.82l-5.9,3.46Z"/>
  <path class="cls-1" d="m335.98,69.93v41.12h-7.34v-41.12h-11.02v-6.91h29.38v6.91h-11.02Z"/>
  <g>
    <path class="cls-1" d="m87.84,43.8h-4.12v-2.21h10.64v2.21h-4.09v13h-2.44v-13Z"/>
    <path class="cls-1" d="m98.17,41.6h2.44v6.45h7.22v-6.45h2.44v15.2h-2.44v-6.66h-7.22v6.66h-2.44v-15.2Z"/>
    <path class="cls-1" d="m115.05,41.6h9.91v2.21h-7.47v4.24h7.1v2.1h-7.1v4.45h7.47v2.2h-9.91v-15.2Z"/>
  </g>
  <path class="cls-1" d="m116.55,64.17s-.03.03-.03.03c-7.74,7.4-15.4,14.95-23.27,22.21-7.58,6.99-15.69,18.16-26.96,18.9-7.6.5-14.68-4.14-17.31-11.28-2.82-7.67.34-17.1,7.22-21.52s16.77-3.37,22.58,2.38c-.02-2.86-.04-5.71-.06-8.57-7.81-4.77-18.28-4.78-26.09-.02s-12.61,14.07-11.96,23.19c.88,12.19,11.25,22.82,23.63,22.94,5.57.05,10.87-2.13,15.44-5.17,2.29-1.53,4.41-3.28,6.42-5.15,1.88-1.74,3.79-3.46,6.41-3.89,2.12-.35,23.97.02,23.98-.09-.03,4.48-.02,8.97-.02,13.45,0,.44,0,.88,0,1.32h7.35v-48.74h-7.32Zm-.03,26.86h-18.22l4.37-4.02,13.85-12.75v16.77Z"/>
  <path class="cls-1" d="m268.21,112.44h-9.48s-10.05,0-10.05,0c-1.2,0-1.96-1.21-1.38-2.18l2.61-4.33h5.38c.24,0,.45-.25.45-.57s-.2-.57-.45-.57h-4.69l.62-1.03h5.59c.24,0,.45-.26.45-.57s-.2-.58-.45-.58h-4.9l.68-1.13h2.88c.25,0,.45-.25.45-.57s-.2-.57-.45-.57h-2.2l1.6-2.65c.13-.21.2-.46.2-.71v-5.52c3.97,0,3.55,0,6.73,0v5.49c.01.25.08.5.22.72l7.57,12.57c.58.98-.17,2.18-1.38,2.18Z"/>
  <g>
    <path class="cls-1" d="m171.74,118.38h2.44v15.2h-2.44v-15.2Z"/>
    <path class="cls-1" d="m184.7,118.38h2.46l7.83,11.46v-11.46h2.44v15.2h-2.41l-7.87-11.53v11.53h-2.44v-15.2Z"/>
    <path class="cls-1" d="m207.95,118.38h2.44v15.2h-2.44v-15.2Z"/>
    <path class="cls-1" d="m224.05,120.59h-4.12v-2.21h10.65v2.21h-4.09v13h-2.44v-13Z"/>
    <path class="cls-1" d="m240.12,118.38h2.44v15.2h-2.44v-15.2Z"/>
    <path class="cls-1" d="m262.63,130.6h-7.6l-1.18,2.98h-2.58l6.34-15.2h2.44l6.36,15.2h-2.58l-1.2-2.98Zm-.78-1.95l-3.02-7.58-3.02,7.58h6.05Z"/>
    <path class="cls-1" d="m276.49,120.59h-4.12v-2.21h10.64v2.21h-4.09v13h-2.44v-13Z"/>
    <path class="cls-1" d="m292.56,118.38h2.44v15.2h-2.44v-15.2Z"/>
    <path class="cls-1" d="m303.71,118.38h2.67l4.83,12.37,4.83-12.37h2.67l-6.21,15.2h-2.58l-6.19-15.2Z"/>
    <path class="cls-1" d="m327.39,118.38h9.91v2.21h-7.47v4.24h7.1v2.1h-7.1v4.45h7.47v2.2h-9.91v-15.2Z"/>
  </g>
</svg>